<svg width="15" height="15" viewBox="0 0 15 15" fill="none" xmlns="http://www.w3.org/2000/svg">
<path d="M6.83851 8.93044C6.15109 8.36519 5.69209 7.66769 5.45078 7.27082L5.27078 6.93147C5.33372 6.86395 5.81367 6.35001 6.02166 6.07116C6.28303 5.72101 5.90408 5.40476 5.90408 5.40476C5.90408 5.40476 4.83777 4.33831 4.59476 4.12677C4.35175 3.91493 4.07201 4.03258 4.07201 4.03258C3.56125 4.3626 3.03177 4.64952 3 6.0294C2.99882 7.32132 3.97953 8.65381 5.04006 9.68539C6.10229 10.8504 7.56073 12.0181 8.97075 12.0167C10.3505 11.9853 10.6373 11.4559 10.9673 10.9451C10.9673 10.9451 11.0851 10.6656 10.8735 10.4223C10.6617 10.1792 9.59509 9.11266 9.59509 9.11266C9.59509 9.11266 9.27907 8.73363 8.92884 8.99523C8.66784 9.19033 8.19914 9.6243 8.08622 9.72952C8.08645 9.72989 7.30239 9.31191 6.83851 8.93044Z" fill="white"/>
</svg>
