<svg width="19" height="20" viewBox="0 0 19 20" fill="none" xmlns="http://www.w3.org/2000/svg">
<rect x="2" y="1.5" width="16" height="16" rx="2" fill="#049898"/>
<path d="M10.0699 10.2277C9.34104 9.62833 8.85438 8.88879 8.59852 8.46799L8.40767 8.10819C8.4744 8.0366 8.98329 7.49167 9.20381 7.19602C9.48095 6.82475 9.07914 6.48945 9.07914 6.48945C9.07914 6.48945 7.94856 5.3587 7.6909 5.13441C7.43323 4.9098 7.13663 5.03455 7.13663 5.03455C6.59509 5.38446 6.03368 5.68867 6 7.15174C5.99875 8.52154 7.03858 9.93436 8.16304 11.0281C9.28931 12.2634 10.8357 13.5014 12.3307 13.5C13.7936 13.4666 14.0977 12.9053 14.4476 12.3638C14.4476 12.3638 14.5725 12.0674 14.3481 11.8095C14.1236 11.5517 12.9927 10.4209 12.9927 10.4209C12.9927 10.4209 12.6576 10.019 12.2863 10.2964C12.0095 10.5032 11.5126 10.9634 11.3928 11.0749C11.3931 11.0753 10.5618 10.6321 10.0699 10.2277Z" fill="white"/>
</svg>
