<svg width="19" height="20" viewBox="0 0 19 20" fill="none" xmlns="http://www.w3.org/2000/svg">
<rect x="2" y="1.5" width="16" height="16" rx="2" fill="#049898"/>
<path d="M13.7373 6.26274C12.923 5.44844 11.8403 5 10.6887 5C9.53716 5 8.45449 5.44844 7.64018 6.26274C6.82587 7.07705 6.37746 8.15969 6.37746 9.31126C6.37746 10.0407 6.56211 10.7576 6.91262 11.3925L6 14L8.60742 13.0874C9.24241 13.4379 9.95924 13.6225 10.6887 13.6225C11.8403 13.6225 12.923 13.1741 13.7372 12.3598C14.5515 11.5455 15 10.4629 15 9.31126C15 8.15967 14.5515 7.07703 13.7373 6.26274ZM12.82 10.9128L12.3223 11.4106C11.91 11.8229 10.7401 11.3215 9.7093 10.2907C8.67848 9.25988 8.1771 8.09001 8.58943 7.67768L9.08714 7.17997C9.19022 7.07689 9.35735 7.07689 9.46043 7.17997L10.0826 7.80211C10.1857 7.90519 10.1857 8.07232 10.0826 8.1754L9.70928 8.54869C10.0714 9.31311 10.6869 9.92861 11.4513 10.2907L11.8246 9.91741C11.9277 9.81433 12.0948 9.81433 12.1979 9.91741L12.82 10.5396C12.9231 10.6426 12.9231 10.8098 12.82 10.9128Z" fill="white"/>
</svg>
