<svg width="40" height="40" viewBox="0 0 40 40" fill="none" xmlns="http://www.w3.org/2000/svg">
<path d="M18.9091 25.8181H19.3091V25.7875L19.3044 25.7573L18.9091 25.8181ZM21.0909 25.8181L20.7063 25.7082L20.6909 25.7621V25.8181H21.0909ZM19.6 24.1818C19.6 24.4027 19.7791 24.5818 20 24.5818C20.2209 24.5818 20.4 24.4027 20.4 24.1818H19.6ZM12.662 23.1079L12.8839 22.7751L12.662 23.1079ZM14.9268 31.7224L15.1284 31.3769L14.9268 31.7224ZM8.59957 28.0315L8.39802 28.377L8.59957 28.0315ZM36.3107 18.2135L36.5165 18.5565L36.3107 18.2135ZM25.785 31.6199L25.5792 31.2769L25.785 31.6199ZM36.1984 25.3718L36.4042 25.7148L36.1984 25.3718ZM36.3087 30.2132L36.5071 30.5605L36.3087 30.2132ZM21.2541 38.8158L21.0557 38.4685L21.2541 38.8158ZM36.2162 12.7891L36.3722 13.1575L36.2162 12.7891ZM3.69332 30.2143L3.89177 29.867L3.69332 30.2143ZM18.7459 38.8158L18.9443 38.4685L18.7459 38.8158ZM4.32625 12.7912L4.16331 13.1565L4.16331 13.1565L4.32625 12.7912ZM8.05754 7.29922L7.88991 7.66241L8.05754 7.29922ZM7.94841 7.3095L8.18091 7.63499L7.94841 7.3095ZM10.8626 6.11406L11.0415 6.47183L11.0415 6.47183L10.8626 6.11406ZM10.8343 6.28878L11.1171 6.00593L10.8343 6.28878ZM14.0429 4.55968L13.9164 4.93915L14.0429 4.55968ZM13.9596 4.5656L14.1385 4.92337L13.9596 4.5656ZM20.1374 6.37015L19.874 6.67118L20.1374 6.37015ZM20.031 6.55574L20.1575 6.17627L20.031 6.55574ZM16.3471 2.84289L16.4957 3.21428L16.3471 2.84289ZM16.3158 3.02628L16.5792 2.72525L16.3158 3.02628ZM18.9519 1.83821L18.7822 2.20039L18.9519 1.83821ZM29.2281 13.2535L29.3857 12.8859L29.3857 12.8859L29.2281 13.2535ZM29.3168 13.2523L29.1492 12.8891L29.3168 13.2523ZM22.1265 10.441L22.394 10.1437L22.1265 10.441ZM22.2424 10.2597L22.4 9.89202L22.2424 10.2597ZM8.71505 20.4766L8.93693 20.1438L8.71505 20.4766ZM26.9719 14.984L26.7568 14.6467L26.9719 14.984ZM26.9825 14.8115L26.7149 15.1088L26.9825 14.8115ZM36.1507 10.0982L35.9831 9.73503L36.1507 10.0982ZM36.1513 9.90039L36.321 9.53821L36.1513 9.90039ZM14.6584 10.1129L14.9412 9.83003L14.6584 10.1129ZM14.5355 10.2891L14.7032 9.92588L14.5355 10.2891ZM28.1027 23.1383L27.8969 22.7953L28.1027 23.1383ZM4.3441 10.0785L4.51863 9.71854L4.3441 10.0785ZM4.33159 9.89295L4.56409 10.2184L4.33159 9.89295ZM4.16958 10.4384C6.82538 11.7262 10.7151 13.7528 13.9357 16.0558C15.5468 17.2079 16.9751 18.4184 17.9967 19.6287C19.0243 20.846 19.6 22.0149 19.6 23.0908H20.4C20.4 21.7371 19.6841 20.3874 18.608 19.1127C17.526 17.8309 16.0385 16.576 14.4011 15.4051C11.1246 13.0621 7.18641 11.0121 4.51863 9.71854L4.16958 10.4384ZM20.4 23.0908C20.4 22.3204 20.7325 21.488 21.2925 20.6408C21.8497 19.798 22.6096 18.9746 23.4102 18.2305C25.0112 16.7425 26.7308 15.6122 27.187 15.3212L26.7568 14.6467C26.285 14.9477 24.5186 16.1082 22.8656 17.6445C22.0393 18.4124 21.2302 19.2844 20.6252 20.1997C20.023 21.1106 19.6 22.0988 19.6 23.0908H20.4ZM27.2501 14.5141L22.394 10.1437L21.8589 10.7383L26.7149 15.1088L27.2501 14.5141ZM22.0848 10.6273L29.0705 13.6212L29.3857 12.8859L22.4 9.89202L22.0848 10.6273ZM29.4844 13.6155L36.3183 10.4614L35.9831 9.73503L29.1492 12.8891L29.4844 13.6155ZM36.321 9.53821L19.1217 1.47602L18.7822 2.20039L35.9815 10.2626L36.321 9.53821ZM18.7166 1.46431L16.1986 2.4715L16.4957 3.21428L19.0137 2.20709L18.7166 1.46431ZM16.0524 3.32731L19.874 6.67118L20.4008 6.06912L16.5792 2.72525L16.0524 3.32731ZM20.1575 6.17627L14.1693 4.1802L13.9164 4.93915L19.9046 6.93521L20.1575 6.17627ZM13.7807 4.20783L10.6838 5.75629L11.0415 6.47183L14.1385 4.92337L13.7807 4.20783ZM10.5514 6.57162L14.3755 10.3957L14.9412 9.83003L11.1171 6.00593L10.5514 6.57162ZM14.7032 9.92588L8.22516 6.93604L7.88991 7.66241L14.3679 10.6522L14.7032 9.92588ZM7.71592 6.98401L4.0991 9.56745L4.56409 10.2184L8.18091 7.63499L7.71592 6.98401ZM4.16331 13.1565C6.4389 14.1715 9.83943 16.0095 12.7718 18.2843C14.2377 19.4215 15.5765 20.6601 16.5988 21.9511C17.6228 23.2442 18.3121 24.5684 18.5137 25.8789L19.3044 25.7573C19.0743 24.2611 18.2993 22.8099 17.226 21.4545C16.151 20.0969 14.7597 18.8139 13.2622 17.6522C10.2679 15.3293 6.80877 13.4605 4.48919 12.4259L4.16331 13.1565ZM18.5091 25.8181V38.721H19.3091V25.8181H18.5091ZM18.9443 38.4685L3.89177 29.867L3.49486 30.5616L18.5474 39.1631L18.9443 38.4685ZM4.03821 30.1287L4.57656 12.9012L3.77695 12.8762L3.2386 30.1037L4.03821 30.1287ZM36.0602 12.4208C33.8263 13.3668 30.4468 15.1291 27.403 17.4204C24.3731 19.7012 21.6066 22.5572 20.7063 25.7082L21.4755 25.928C22.3013 23.0379 24.8877 20.3151 27.8842 18.0595C30.8667 15.8144 34.1869 14.0828 36.3722 13.1575L36.0602 12.4208ZM20.6909 25.8181V38.721H21.4909V25.8181H20.6909ZM21.4526 39.1631L36.5071 30.5605L36.1102 29.8659L21.0557 38.4685L21.4526 39.1631ZM36.7636 30.1184V25.4653H35.9636V30.1184H36.7636ZM35.9926 25.0288L25.5792 31.2769L25.9908 31.9629L36.4042 25.7148L35.9926 25.0288ZM25.8545 31.4328V27.8155H25.0545V31.4328H25.8545ZM28.3085 23.4813L36.5165 18.5565L36.1049 17.8705L27.8969 22.7953L28.3085 23.4813ZM36.7636 18.12V12.8908H35.9636V18.12H36.7636ZM8.14544 20.5674V27.9373H8.94544V20.5674H8.14544ZM8.39802 28.377L14.7253 32.0679L15.1284 31.3769L8.80112 27.686L8.39802 28.377ZM15.4909 31.6282V27.6464H14.6909V31.6282H15.4909ZM12.8839 22.7751L8.93693 20.1438L8.49317 20.8095L12.4401 23.4408L12.8839 22.7751ZM19.6 23.0908V24.1818H20.4V23.0908H19.6ZM15.4909 27.6464C15.4909 25.6889 14.5126 23.8609 12.8839 22.7751L12.4401 23.4408C13.8463 24.3782 14.6909 25.9564 14.6909 27.6464H15.4909ZM14.7253 32.0679C15.0647 32.2659 15.4909 32.0211 15.4909 31.6282H14.6909C14.6909 31.4037 14.9345 31.2638 15.1284 31.3769L14.7253 32.0679ZM8.14544 27.9373C8.14544 28.1183 8.24162 28.2858 8.39802 28.377L8.80112 27.686C8.89049 27.7381 8.94544 27.8338 8.94544 27.9373H8.14544ZM36.5165 18.5565C36.6698 18.4645 36.7636 18.2988 36.7636 18.12H35.9636C35.9636 18.0178 36.0172 17.9231 36.1049 17.8705L36.5165 18.5565ZM25.5792 31.2769C25.7004 31.2041 25.8545 31.2914 25.8545 31.4328H25.0545C25.0545 31.9133 25.5787 32.2101 25.9908 31.9629L25.5792 31.2769ZM36.7636 25.4653C36.7636 25.0696 36.3319 24.8252 35.9926 25.0288L36.4042 25.7148C36.2103 25.8311 35.9636 25.6915 35.9636 25.4653H36.7636ZM36.5071 30.5605C36.6657 30.4698 36.7636 30.3011 36.7636 30.1184H35.9636C35.9636 30.0141 36.0196 29.9177 36.1102 29.8659L36.5071 30.5605ZM20.6909 38.721C20.6909 39.1119 21.1132 39.357 21.4526 39.1631L21.0557 38.4685C21.2496 38.3576 21.4909 38.4977 21.4909 38.721H20.6909ZM36.3722 13.1575C36.1583 13.248 35.9636 13.0754 35.9636 12.8908H36.7636C36.7636 12.5506 36.4174 12.2695 36.0602 12.4208L36.3722 13.1575ZM3.89177 29.867C3.98524 29.9204 4.04157 30.0211 4.03821 30.1287L3.2386 30.1037C3.23271 30.292 3.33129 30.4681 3.49486 30.5616L3.89177 29.867ZM18.5091 38.721C18.5091 38.4977 18.7504 38.3576 18.9443 38.4685L18.5474 39.1631C18.8868 39.357 19.3091 39.1119 19.3091 38.721H18.5091ZM4.48919 12.4259C4.13823 12.2694 3.78753 12.5378 3.77695 12.8762L4.57656 12.9012C4.57082 13.0851 4.37307 13.2501 4.16331 13.1565L4.48919 12.4259ZM8.22516 6.93604C8.05912 6.8594 7.86473 6.87772 7.71592 6.98401L8.18091 7.63499C8.09588 7.69573 7.9848 7.7062 7.88991 7.66241L8.22516 6.93604ZM10.6838 5.75629C10.373 5.91169 10.3057 6.32591 10.5514 6.57162L11.1171 6.00593C11.2575 6.14634 11.2191 6.38303 11.0415 6.47183L10.6838 5.75629ZM14.1693 4.1802C14.0413 4.13751 13.9015 4.14744 13.7807 4.20783L14.1385 4.92337C14.0694 4.95787 13.9896 4.96355 13.9164 4.93915L14.1693 4.1802ZM19.874 6.67118C19.6349 6.46202 19.8562 6.07583 20.1575 6.17627L19.9046 6.93521C20.4318 7.11098 20.8191 6.43513 20.4008 6.06912L19.874 6.67118ZM16.1986 2.4715C15.8456 2.6127 15.7663 3.07696 16.0524 3.32731L16.5792 2.72525C16.7427 2.86831 16.6974 3.1336 16.4957 3.21428L16.1986 2.4715ZM19.1217 1.47602C18.9941 1.41621 18.8474 1.41197 18.7166 1.46431L19.0137 2.20709C18.9389 2.237 18.8551 2.23457 18.7822 2.20039L19.1217 1.47602ZM29.0705 13.6212C29.2031 13.678 29.3535 13.6759 29.4844 13.6155L29.1492 12.8891C29.224 12.8546 29.3099 12.8534 29.3857 12.8859L29.0705 13.6212ZM22.394 10.1437C22.6386 10.3638 22.3872 10.7569 22.0848 10.6273L22.4 9.89202C21.8708 9.66524 21.4309 10.3532 21.8589 10.7383L22.394 10.1437ZM8.94544 20.5674C8.94544 20.7998 8.68649 20.9383 8.49317 20.8095L8.93693 20.1438C8.59861 19.9183 8.14544 20.1608 8.14544 20.5674H8.94544ZM27.187 15.3212C27.4924 15.1265 27.4818 14.7227 27.2501 14.5141L26.7149 15.1088C26.5915 14.9977 26.5743 14.7631 26.7568 14.6467L27.187 15.3212ZM36.3183 10.4614C36.7114 10.28 36.713 9.72194 36.321 9.53821L35.9815 10.2626C35.7575 10.1576 35.7585 9.8387 35.9831 9.73503L36.3183 10.4614ZM14.3755 10.3957C14.1459 10.166 14.4082 9.78976 14.7032 9.92588L14.3679 10.6522C14.884 10.8905 15.3432 10.232 14.9412 9.83003L14.3755 10.3957ZM25.8545 27.8155C25.8545 26.04 26.7861 24.3948 28.3085 23.4813L27.8969 22.7953C26.1335 23.8533 25.0545 25.759 25.0545 27.8155H25.8545ZM4.51863 9.71854C4.73779 9.82481 4.72481 10.1036 4.56409 10.2184L4.0991 9.56745C3.80349 9.7786 3.80127 10.2598 4.16958 10.4384L4.51863 9.71854Z" fill="white"/>
</svg>
